<svg xmlns="http://www.w3.org/2000/svg" viewBox="0 0 51.84 53.43"><defs><style>.cls-1{fill:#010101;}</style></defs><title>Asset 10</title><g id="Layer_2" data-name="Layer 2"><g id="desktop"><g id="home"><path class="cls-1" d="M37.24,0a22.67,22.67,0,0,0-6.13.9L31,.94A25.6,25.6,0,0,0,27.16.57a12.74,12.74,0,0,0-6.69,1.66A25.76,25.76,0,0,0,11.05.75a11.5,11.5,0,0,0-7.9,3.3C1,6.38-.21,10,0,14.88a44.17,44.17,0,0,0,1.09,6.41,75.94,75.94,0,0,0,2.66,9.24c1.12,3,2.35,5.79,4.26,7.65a5.28,5.28,0,0,0,3.83,1.65A4.87,4.87,0,0,0,14.8,38.6a3.58,3.58,0,0,0,1.26,1,6.74,6.74,0,0,0,1.51.59,10.6,10.6,0,0,0,4.34.22,8.06,8.06,0,0,0,1.95-.6c0,.73.05,1.45.08,2.18a20.78,20.78,0,0,0,.84,6.31,8.29,8.29,0,0,0,1.62,3.26,6.48,6.48,0,0,0,6.24,1.68,9.1,9.1,0,0,0,5.9-3.41c1.58-2.25,2.29-5.48,2.43-10.71,0-.28.08-.52.12-.74l.38,0h0a13.25,13.25,0,0,0,6-1.05,8.24,8.24,0,0,0,3.74-2.85,2.85,2.85,0,0,0,.54-1.44,2.93,2.93,0,0,0-1-2.28,3,3,0,0,0-3.05-.44,13.45,13.45,0,0,1-2.68.33,51.35,51.35,0,0,0,5.47-13,28.71,28.71,0,0,0,1-6.56c0-1.94-.13-3.66-1.29-5.14A15.93,15.93,0,0,0,37.61,0h-.37Zm-.11,1.42a14.49,14.49,0,0,1,11.94,5.4A6.55,6.55,0,0,1,50,11a27.33,27.33,0,0,1-.95,6.21,50,50,0,0,1-6.45,14.45,2.37,2.37,0,0,0,.35.19c.65.26,2.12.49,5-.11a2,2,0,0,1,1.84.17,1.13,1.13,0,0,1,.41.94,1.57,1.57,0,0,1-.29.75,7.63,7.63,0,0,1-3.12,2.33,12.39,12.39,0,0,1-4.71.92A7.41,7.41,0,0,1,40,36.61l0,0c-.25,2.36-.81,7-1.18,9.15A7.46,7.46,0,0,1,37,49.83a7.94,7.94,0,0,1-4.23,2,5.73,5.73,0,0,1-5.08-1,6.79,6.79,0,0,1-1.88-2.86A8,8,0,0,1,25.36,46c-.1-.89-.18-2-.23-3.19-.06-1.88-.09-3.75-.06-5.62a6.88,6.88,0,0,1-3.46,1.69,9.22,9.22,0,0,1-3.72-.2,5,5,0,0,1-1.16-.45,2.17,2.17,0,0,1-1-.88,1.25,1.25,0,0,1-.12-.85,1.35,1.35,0,0,1,.48-.74A4.39,4.39,0,0,1,18,35a6.13,6.13,0,0,0,2.5-.82,13.48,13.48,0,0,0,1.19-1.39.28.28,0,0,0,0-.09,6.67,6.67,0,0,1-3-.79c-.33.35-2,2.15-4.11,4.65a4.08,4.08,0,0,1-2.87,1.69A3.7,3.7,0,0,1,9,37c-1.57-1.52-2.81-4.13-3.9-7.09a74.31,74.31,0,0,1-2.6-9,46.05,46.05,0,0,1-1.06-6.16C1.25,10.09,2.33,7,4.19,5a10,10,0,0,1,6.9-2.86,24.69,24.69,0,0,1,9.56,1.64A10.79,10.79,0,0,1,27.09,2a16.81,16.81,0,0,1,3.74.48l.05,0A16.06,16.06,0,0,1,32.52,2a21.69,21.69,0,0,1,4.61-.56Zm.34,1.5h-.32a19.4,19.4,0,0,0-3.8.42,16.77,16.77,0,0,1,6.35,5,19.18,19.18,0,0,1,2.52,4.28,10.23,10.23,0,0,1,.5,1.47,2.58,2.58,0,0,1,.09.52.93.93,0,0,1,0,.32l0,0c.07,2-.41,3.27-.47,5.14,0,1.34.3,2.93.38,4.66a8.8,8.8,0,0,1-1.17,5.16c.09.11.17.22.26.32a48.46,48.46,0,0,0,5.87-13.41A26,26,0,0,0,48.55,11a5.8,5.8,0,0,0-.66-3.25A12.78,12.78,0,0,0,37.47,2.91Zm-10.66.57a8.91,8.91,0,0,0-5.95,2,11,11,0,0,0-3.12,4.64,19.62,19.62,0,0,0-1.14,5.37h0a11.35,11.35,0,0,1,3-1.15,5.83,5.83,0,0,1,3.41.08,3.9,3.9,0,0,1,2.32,2.93c1.57,7.25-.49,10-1.25,12a22,22,0,0,0-.73,2.26l.28-.06a2.59,2.59,0,0,1,1.21.24,2.92,2.92,0,0,1,1.56,1.74,2.65,2.65,0,0,1,.16.63.92.92,0,0,1,.05.28c-.09,2.78-.08,5.55,0,8.33.06,1.19.13,2.25.23,3.08a8,8,0,0,0,.32,1.68,5.67,5.67,0,0,0,1.45,2.28c.75.63,1.83,1,3.8.63a6.49,6.49,0,0,0,3.47-1.61,6,6,0,0,0,1.4-3.31c.4-2.34,1.21-9.12,1.31-10.4a4.37,4.37,0,0,1,.4-2.26,2.64,2.64,0,0,1,1.23-1.12,4.21,4.21,0,0,1,.58-.21q-.27-.37-.54-.72a10.23,10.23,0,0,1-1.49-2.45c-.18-.37-.37-.72-.57-1.08-.3-.53-.67-1.2-1.06-1.95a23.6,23.6,0,0,1-2.08-5.1c-.44-1.77-.51-3.6.62-4.9,1-1.15,2.77-1.62,5.41-1.35-.08-.24-.13-.43-.26-.74a17.45,17.45,0,0,0-2.32-3.93A14.39,14.39,0,0,0,27.07,3.49ZM12,3.6q-.42,0-.84,0A8.51,8.51,0,0,0,5.28,6C3.76,7.63,2.76,10.27,3,14.65a45.9,45.9,0,0,0,1,5.9,72.31,72.31,0,0,0,2.54,8.87c1,2.86,2.33,5.36,3.54,6.54a2.26,2.26,0,0,0,1.62.8,2.58,2.58,0,0,0,1.77-1.15q1.95-2.34,4-4.56a7.78,7.78,0,0,1-2.59-7,27.17,27.17,0,0,0,.23-4.4c0-1.18-.11-2-.11-2.46v-.05h0a21.88,21.88,0,0,1,1.31-7.52,12.92,12.92,0,0,1,2.95-4.7,25.31,25.31,0,0,0-6.42-1.27L12,3.6Zm27.6,11.76a3.61,3.61,0,0,0-2.8.92c-.63.72-.69,2-.3,3.56a23.6,23.6,0,0,0,1.95,4.76c.38.73.75,1.39,1,1.92a12.12,12.12,0,0,1,.65,1.23,7.65,7.65,0,0,0,.4.81,7.43,7.43,0,0,0,.63-3.71c-.08-1.57-.44-3.17-.39-4.79.06-1.89.44-3.13.47-4.59A13.06,13.06,0,0,0,39.62,15.36Zm-18.33.26a6.33,6.33,0,0,0-1.37.16,10.88,10.88,0,0,0-2.57,1,5.71,5.71,0,0,0-.77.51l0,0c0,.33.08,1.12.1,2.28a28.28,28.28,0,0,1-.25,4.64c-.53,3.8,2.23,7,5.48,7a22.77,22.77,0,0,1,.81-2.41c.91-2.43,2.69-4.21,1.19-11.14a2.21,2.21,0,0,0-1.4-1.86A3.29,3.29,0,0,0,21.29,15.62Zm17.63.45H39a2.3,2.3,0,0,1,.4.05,1.25,1.25,0,0,1,.31.12.35.35,0,0,1,.16.25v0h0a.47.47,0,0,1-.08.3,1.27,1.27,0,0,1-.24.33,1.53,1.53,0,0,1-.86.47,1.28,1.28,0,0,1-.91-.23,1.2,1.2,0,0,1-.29-.26.62.62,0,0,1-.14-.28.38.38,0,0,1,.09-.29.86.86,0,0,1,.26-.2,2.54,2.54,0,0,1,.83-.26l.36,0Zm-17.41.38.37,0a2.35,2.35,0,0,1,.87.28.76.76,0,0,1,.3.23.53.53,0,0,1,.12.38.61.61,0,0,1-.17.34,1.47,1.47,0,0,1-.32.29,1.35,1.35,0,0,1-1,.25,1.64,1.64,0,0,1-1.2-.87A.6.6,0,0,1,20.4,17a.57.57,0,0,1,.42-.44,2,2,0,0,1,.69-.09ZM41.68,32.79h0c-.33.12-.59.17-.82.27a1,1,0,0,0-.53.48A2.89,2.89,0,0,0,40.09,35a1.26,1.26,0,0,0,.33.16,6.48,6.48,0,0,0,1.73.18,11.78,11.78,0,0,0,4.1-.78,9.15,9.15,0,0,0,2.1-1.37h0c-3.1.64-4.86.47-5.93,0a3.25,3.25,0,0,1-.74-.45ZM23.8,33h-.05c-.12,0-.29,0-.62.42a15.44,15.44,0,0,1-1.68,1.92,7.11,7.11,0,0,1-3.13,1.12,4.69,4.69,0,0,0-1,.32.52.52,0,0,0,.16.12,3.61,3.61,0,0,0,.8.32,7.9,7.9,0,0,0,3.11.18,5.35,5.35,0,0,0,3.58-2.32A1.19,1.19,0,0,0,25,34a1.69,1.69,0,0,0-.74-.87A1.37,1.37,0,0,0,23.8,33Z"/></g></g></g></svg>