<svg xmlns="http://www.w3.org/2000/svg" viewBox="0 0 55.13 53.76"><defs><style>.cls-1{fill:#010101;}.cls-2{fill:#fff;stroke:#010101;stroke-miterlimit:10;stroke-width:0.26px;}</style></defs><title>Asset 16</title><g id="Layer_2" data-name="Layer 2"><g id="desktop"><g id="home"><path class="cls-1" d="M2.42,2.42h50.3V51.34H2.42Z"/><path class="cls-2" d="M2.42,2.42h50.3V51.34H2.42ZM.13,53.63H55V.13H.13ZM39,25.92a11.43,11.43,0,0,0,1.69,0c0-.16,0-.28,0-.39,0-1.24-.59-3.52-3-3.52-2.2,0-3.13,1.92-3.36,4Zm-4.64,3.13c0,3.09,1.51,5.17,5,5.17A8.84,8.84,0,0,0,43,33.51c.16-.07.28,0,.28.16v2.86a.5.5,0,0,1-.23.45,10.29,10.29,0,0,1-4.6.87c-6,0-8.3-4.46-8.3-9.42,0-5.39,2.79-9.81,7.71-9.81s6.72,4.19,6.72,7.6a11.79,11.79,0,0,1-.18,2.41.34.34,0,0,1-.3.3,32.85,32.85,0,0,1-3.82.16h-6V29ZM22.06,26.72c-.64-2.54-2.2-8.07-2.77-10.74h-.05c-.47,2.67-1.73,7.2-2.67,10.74Zm-6.43,3.7-1.8,6.84c-.05.18-.11.25-.35.25H10.12c-.23,0-.27-.07-.23-.34l6.5-22.71a7.34,7.34,0,0,0,.23-1.87c0-.16.06-.23.18-.23h4.8c.16,0,.23.05.27.23l7.27,24.63c.05.18,0,.29-.18.29H25.18a.31.31,0,0,1-.34-.23L23,30.42Z"/></g></g></g></svg>