<svg xmlns="http://www.w3.org/2000/svg" viewBox="0 0 53.5 53.5"><defs><style>.cls-1{fill:#231f20;}.cls-2{fill:#fff;}</style></defs><title>Asset 8</title><g id="Layer_2" data-name="Layer 2"><g id="desktop"><g id="home"><path class="cls-1" d="M0,46.6a6.9,6.9,0,0,0,6.9,6.9H46.6a6.9,6.9,0,0,0,6.9-6.9V6.9A6.9,6.9,0,0,0,46.6,0H6.9A6.9,6.9,0,0,0,0,6.9V46.6Z"/><path class="cls-2" d="M22.18,23.66V16.09h6.67a10,10,0,0,1,1.84.16,4.58,4.58,0,0,1,1.57.56A3.14,3.14,0,0,1,33.35,18a3.77,3.77,0,0,1,.4,1.86,3.43,3.43,0,0,1-1.22,3,5.16,5.16,0,0,1-3.13.9ZM15.06,10.55V43h15.7A16.72,16.72,0,0,0,35,42.4a11.25,11.25,0,0,0,3.68-1.68,8.31,8.31,0,0,0,2.56-2.92,9,9,0,0,0,.95-4.25,9,9,0,0,0-1.47-5.19,7.85,7.85,0,0,0-4.47-3,8,8,0,0,0,3.29-2.67,7.11,7.11,0,0,0,1.11-4.09,8.68,8.68,0,0,0-.75-3.81,6.19,6.19,0,0,0-2.11-2.47A9,9,0,0,0,34.52,11a20.24,20.24,0,0,0-4.21-.41Zm7.12,26.86V28.52h7.76a6,6,0,0,1,3.72,1.06,4.2,4.2,0,0,1,1.41,3.57,4.4,4.4,0,0,1-.43,2.08,3.4,3.4,0,0,1-1.16,1.3,5.07,5.07,0,0,1-1.68.68,9.87,9.87,0,0,1-2,.2Z"/></g></g></g></svg>