<?xml version="1.0" encoding="utf-8"?>
<!-- Generator: Adobe Illustrator 24.1.0, SVG Export Plug-In . SVG Version: 6.00 Build 0)  -->
<svg version="1.1" id="regular" xmlns="http://www.w3.org/2000/svg" xmlns:xlink="http://www.w3.org/1999/xlink" x="0px" y="0px"
	 viewBox="0 0 34.8 34.5" style="enable-background:new 0 0 34.8 34.5;" xml:space="preserve">
<style type="text/css">
	.st0{fill-rule:evenodd;clip-rule:evenodd;fill:#FFFFFF;}
</style>
<g>
	<path class="st0" d="M5.4,13.9v5.7c0.9-0.5,2.3-1.4,4.4-2.7L5.4,13.9z"/>
	<polygon class="st0" points="6.2,21.2 16.6,28.5 16.6,21.6 11.4,18 	"/>
	<path class="st0" d="M16.6,12.9V6L6.2,12.3l5.3,3.7C12.9,15.2,14.6,14.1,16.6,12.9z"/>
	<polygon class="st0" points="28.7,12.3 18.3,6 18.3,12.9 23.4,16 	"/>
	<polygon class="st0" points="17.4,14.4 13,17.1 17.4,20.2 21.9,17.1 	"/>
	<polygon class="st0" points="18.3,21.6 18.3,28.5 28.7,21.2 23.5,18 	"/>
	<path class="st0" d="M17.4,0C7.9,0,0.1,7.7,0.1,17.3s7.7,17.3,17.3,17.3s17.3-7.7,17.3-17.3S27,0,17.4,0z M18,30.8
		c-0.3,0.3-0.8,0.3-1.1,0c-4.3-3.4-13.2-8.6-13.2-9.6c0-8.5-0.2-9.1,0.2-9.5c0.4-0.5,3.2-1.9,13.1-8c0.8-0.5,0.7,0.1,13.7,7.8
		c0.3,0.2,0.4,0.4,0.4,0.7c0-0.1,0,8.9,0,8.9C31.2,22,30.9,21.7,18,30.8z"/>
	<polygon class="st0" points="29.4,19.7 29.4,13.9 25,17 	"/>
</g>
</svg>
