<svg xmlns="http://www.w3.org/2000/svg" viewBox="0 0 34.42 33.57"><defs><style>.cls-1{fill:#fff;fill-rule:evenodd;}</style></defs><title>Asset 19</title><g id="Layer_2" data-name="Layer 2"><g id="desktop"><g id="home"><path class="cls-1" d="M17.21,0a17.21,17.21,0,0,0-5.44,33.54c.86.16,1.13-.35,1.13-.81s0-1.55,0-3c-4.78,1-5.78-2.27-5.78-2.27A4.55,4.55,0,0,0,5.21,25c-1.56-1.07.12-1,.12-1A3.61,3.61,0,0,1,8,25.69a3.67,3.67,0,0,0,5,1.43,3.66,3.66,0,0,1,1.09-2.3c-3.82-.44-7.84-1.91-7.84-8.51A6.67,6.67,0,0,1,8,11.69a6.14,6.14,0,0,1,.17-4.55S9.62,6.68,12.9,8.9a16.3,16.3,0,0,1,8.62,0c3.29-2.22,4.73-1.76,4.73-1.76a6.14,6.14,0,0,1,.17,4.55,6.67,6.67,0,0,1,1.77,4.62c0,6.61-4,8.07-7.86,8.49A4.08,4.08,0,0,1,21.51,28v4.77c0,.46.28,1,1.15.8A17.21,17.21,0,0,0,17.21,0Z"/></g></g></g></svg>