<svg xmlns="http://www.w3.org/2000/svg" viewBox="0 0 14.18 13.83"><defs><style>.cls-1{fill:#231f20;fill-rule:evenodd;}</style></defs><title>Asset 2</title><g id="Layer_2" data-name="Layer 2"><g id="desktop"><g id="home"><path class="cls-1" d="M7.09,0A7.09,7.09,0,0,0,4.85,13.81c.35.07.46-.14.46-.33s0-.64,0-1.23c-2,.43-2.38-.93-2.38-.93a1.89,1.89,0,0,0-.78-1c-.65-.44.05-.43.05-.43a1.48,1.48,0,0,1,1.08.73,1.51,1.51,0,0,0,2.06.59,1.57,1.57,0,0,1,.45-.95C4.22,10,2.57,9.43,2.57,6.72a2.69,2.69,0,0,1,.73-1.9,2.53,2.53,0,0,1,.06-1.88s.6-.19,1.95.73a6.64,6.64,0,0,1,1.78-.24,6.52,6.52,0,0,1,1.77.24c1.36-.92,2-.73,2-.73a2.55,2.55,0,0,1,.07,1.88,2.73,2.73,0,0,1,.73,1.9c0,2.72-1.66,3.32-3.24,3.49a1.67,1.67,0,0,1,.49,1.31v2c0,.19.11.4.47.33A7.09,7.09,0,0,0,7.09,0Z"/></g></g></g></svg>