<svg xmlns="http://www.w3.org/2000/svg" viewBox="0 0 46.63 52.88"><defs><style>.cls-1{fill:#231f20;}.cls-2{fill:#ebebeb;}.cls-3{fill:#fff;}</style></defs><title>Asset 3</title><g id="Layer_2" data-name="Layer 2"><g id="desktop"><g id="home"><polygon class="cls-1" points="4.24 47.6 0 0 46.63 0 42.38 47.59 23.29 52.88 4.24 47.6"/><polygon class="cls-2" points="23.32 21.55 15.59 21.55 15.06 15.57 23.32 15.57 23.32 9.73 23.29 9.73 8.68 9.73 8.82 11.29 10.25 27.38 23.32 27.38 23.32 21.55"/><polygon class="cls-2" points="23.32 36.7 23.29 36.71 16.79 34.96 16.37 30.3 13.21 30.3 10.51 30.3 11.33 39.47 23.29 42.79 23.32 42.78 23.32 36.7"/><polygon class="cls-3" points="23.29 21.55 23.29 27.38 30.48 27.38 29.8 34.95 23.29 36.71 23.29 42.78 35.26 39.47 35.35 38.48 36.72 23.11 36.86 21.55 35.29 21.55 23.29 21.55"/><polygon class="cls-3" points="23.29 9.73 23.29 13.36 23.29 15.55 23.29 15.57 37.38 15.57 37.38 15.57 37.4 15.57 37.51 14.26 37.78 11.29 37.92 9.73 23.29 9.73"/></g></g></g></svg>