<svg xmlns="http://www.w3.org/2000/svg" viewBox="0 0 55.1 53.73"><defs><style>.cls-1{fill:#010101;}.cls-2{fill:#fff;stroke:#010101;stroke-miterlimit:10;stroke-width:0.23px;}</style></defs><title>Asset 17</title><g id="Layer_2" data-name="Layer 2"><g id="desktop"><g id="home"><path class="cls-1" d="M2.4,2.4H52.69V51.33H2.4Z"/><path class="cls-2" d="M2.4,2.4H52.69V51.33H2.4ZM.12,53.61H55V.12H.12ZM36.05,19.19c0-.19.07-.28.28-.28h3.59c.19,0,.28.07.28.28v18c0,.19-.05.27-.28.27H36.37c-.23,0-.29-.1-.29-.29v-18ZM35.8,14a2.33,2.33,0,0,1,4.66,0,2.18,2.18,0,0,1-2.37,2.33A2.14,2.14,0,0,1,35.8,14ZM25.52,26.7c-.64-2.53-2.16-8.06-2.73-10.74h0c-.48,2.67-1.69,7.2-2.65,10.74Zm-6.35,3.71-1.8,6.85c-.05.19-.11.23-.35.23H13.66c-.23,0-.27-.06-.23-.34l6.5-22.72a7.75,7.75,0,0,0,.23-1.9c0-.16.06-.23.18-.23h4.8c.17,0,.23,0,.28.23L32.69,37.2c.05.18,0,.29-.18.29H28.72c-.19,0-.3,0-.35-.2L26.5,30.41Z"/></g></g></g></svg>