<svg xmlns="http://www.w3.org/2000/svg" viewBox="0 0 32.51 32.51"><defs><style>.cls-1{fill:#fff;fill-rule:evenodd;}</style></defs><title>Asset 20</title><g id="Layer_2" data-name="Layer 2"><g id="desktop"><g id="home"><path class="cls-1" d="M21.28,12.25h.83a.65.65,0,0,0,.64-.68V10a.67.67,0,0,0-.68-.69H20.5a.67.67,0,0,0-.68.69v1.56a.4.4,0,0,0,.05.24.62.62,0,0,0,.63.44Zm-5,.69a3.37,3.37,0,1,0,3.32,3.46A3.3,3.3,0,0,0,16.26,12.94Zm-6.5,1.75h0v7.38a.65.65,0,0,0,.64.63H22a.64.64,0,0,0,.63-.63V14.69H21.09a4.81,4.81,0,0,1,.19,2.2,5.05,5.05,0,0,1-.73,2.05A4.6,4.6,0,0,1,19,20.5a5.19,5.19,0,0,1-5.37.25,5.26,5.26,0,0,1-2-2,5.08,5.08,0,0,1-.39-4.06Zm13.09,9.82a2.42,2.42,0,0,0,.24-.05,1.81,1.81,0,0,0,1.37-1.37.4.4,0,0,1,.05-.24V9.67a.3.3,0,0,0-.05-.2,1.78,1.78,0,0,0-1.52-1.42H9.62c-.1,0-.15,0-.25,0A1.71,1.71,0,0,0,8,9.62V22.9c0,.09,0,.14,0,.24a1.79,1.79,0,0,0,1.52,1.37H22.85Zm-6.59,8A16.26,16.26,0,1,1,32.51,16.26,16.25,16.25,0,0,1,16.26,32.51Z"/></g></g></g></svg>