<svg xmlns="http://www.w3.org/2000/svg" viewBox="0 0 52.83 52.83"><defs><style>.cls-1{fill:#010101;}.cls-2{fill:#fff;}</style></defs><title>Asset 4</title><g id="Layer_2" data-name="Layer 2"><g id="desktop"><g id="home"><path class="cls-1" d="M0,0H52.83V52.83H0Z"/><path class="cls-2" d="M13.89,44.15l4-2.45c.78,1.39,1.49,2.56,3.2,2.56s2.66-.64,2.66-3.12V24.25h5v17c0,5.14-3,7.48-7.41,7.48a7.72,7.72,0,0,1-7.45-4.54"/><path class="cls-2" d="M31.45,43.62l4-2.34a5.41,5.41,0,0,0,4.89,3c2.06,0,3.37-1,3.37-2.45,0-1.7-1.34-2.3-3.61-3.29L38.89,38c-3.58-1.52-6-3.44-6-7.48,0-3.72,2.83-6.56,7.27-6.56a7.33,7.33,0,0,1,7,4L43.4,30.43c-.85-1.53-1.77-2.13-3.19-2.13a2.16,2.16,0,0,0-2.38,2.13c0,1.48.92,2.09,3.05,3l1.24.53c4.22,1.81,6.6,3.65,6.6,7.8,0,4.47-3.51,6.92-8.23,6.92s-7.59-2.2-9-5.07"/></g></g></g></svg>