<svg xmlns="http://www.w3.org/2000/svg" viewBox="0 0 32.41 32.41"><defs><style>.cls-1{fill:#fff;fill-rule:evenodd;}</style></defs><title>Asset 21</title><g id="Layer_2" data-name="Layer 2"><g id="desktop"><g id="home"><path class="cls-1" d="M25.34,23.87V17.53c0-3.42-1.81-5-4.25-5a3.7,3.7,0,0,0-3.32,1.8V12.79H14.11c.05,1,0,11,0,11h3.66V17.67a2.27,2.27,0,0,1,.1-.88,2,2,0,0,1,1.9-1.36c1.32,0,1.86,1,1.86,2.49v5.9l3.71.05ZM10.25,11.28a1.93,1.93,0,0,0,2.1-1.91,1.89,1.89,0,0,0-2-1.9,1.93,1.93,0,0,0-2.1,1.9,1.89,1.89,0,0,0,2.05,1.91Zm6,21.13a16.21,16.21,0,1,1,16.2-16.2A16.19,16.19,0,0,1,16.21,32.41Zm-4.15-8.54V12.79H8.4v11h3.66Z"/></g></g></g></svg>