<svg xmlns="http://www.w3.org/2000/svg" viewBox="0 0 55.12 53.75"><defs><style>.cls-1{fill:#010101;}.cls-2{fill:#fff;stroke:#010101;stroke-miterlimit:10;stroke-width:0.25px;}</style></defs><title>Asset 15</title><g id="Layer_2" data-name="Layer 2"><g id="desktop"><g id="home"><path class="cls-1" d="M2.41,2.41H52.72V51.34H2.41Z"/><path class="cls-2" d="M2.41,2.41H52.72V51.34H2.41ZM.13,53.63H55V.13H.13Zm37-31.55c-1.8,0-2.41.92-2.41,1.67s.4,1.4,2.83,2.65c3.59,1.74,4.71,3.41,4.71,5.85,0,3.67-2.79,5.63-6.57,5.63a9.8,9.8,0,0,1-4.68-1c-.16-.06-.19-.18-.19-.36V33.17c0-.23.11-.3.28-.19a8.55,8.55,0,0,0,4.59,1.35c1.81,0,2.57-.76,2.57-1.78,0-.82-.53-1.55-2.84-2.75-3.24-1.55-4.6-3.12-4.6-5.76,0-2.95,2.31-5.4,6.31-5.4a10.48,10.48,0,0,1,4.09.64.5.5,0,0,1,.24.46v3.14c0,.18-.11.29-.35.23a7.73,7.73,0,0,0-4-1ZM17.47,24.8c.52,0,.93,0,1.84,0,2.67,0,5.19-.93,5.19-4.57,0-2.9-1.8-4.37-4.85-4.37-.91,0-1.78,0-2.2.07ZM13.39,12.66c0-.16.32-.27.5-.27,1.46-.07,3.64-.11,5.9-.11,6.33,0,8.8,3.47,8.8,7.9,0,5.81-4.21,8.3-9.38,8.3-.86,0-1.16,0-1.78,0v8.77c0,.19-.06.28-.27.28h-3.5c-.19,0-.27-.07-.27-.28Z"/></g></g></g></svg>