<svg xmlns="http://www.w3.org/2000/svg" viewBox="0 0 54.53 27.64"><defs><style>.cls-1{fill:#231f20;}.cls-2{fill:#fff;}</style></defs><title>Asset 13</title><g id="Layer_2" data-name="Layer 2"><g id="desktop"><g id="home"><ellipse class="cls-1" cx="27.27" cy="13.82" rx="27.27" ry="13.82"/><path class="cls-2" d="M15.47,9.58a3.36,3.36,0,0,1,2.47.68,2.76,2.76,0,0,1,.3,2.36,4,4,0,0,1-1.31,2.48,4.8,4.8,0,0,1-2.93.74H12l1.21-6.26ZM7.53,22.18h3.26l.77-4h2.79a10,10,0,0,0,3-.39,5.8,5.8,0,0,0,2.17-1.3,6.54,6.54,0,0,0,2-3.66,4.63,4.63,0,0,0-.78-4.15A5.18,5.18,0,0,0,16.7,7.22H10.43Z"/><path class="cls-2" d="M24,3.24h3.23l-.77,4h2.88c1.81,0,3.06.31,3.75,1a3.16,3.16,0,0,1,.62,3.07l-1.36,7H29.07l1.29-6.62c.14-.75.09-1.27-.17-1.54a2.27,2.27,0,0,0-1.62-.41H26L24.32,18.2H21.09Z"/><path class="cls-2" d="M40.9,9.58a3.34,3.34,0,0,1,2.47.68,2.72,2.72,0,0,1,.3,2.36,4,4,0,0,1-1.3,2.48,4.84,4.84,0,0,1-2.94.74h-2l1.22-6.26ZM33,22.18h3.26l.77-4h2.79a9.94,9.94,0,0,0,3-.39A5.72,5.72,0,0,0,45,16.51a6.7,6.7,0,0,0,1.33-1.66,7.21,7.21,0,0,0,.72-2,4.69,4.69,0,0,0-.78-4.15,5.21,5.21,0,0,0-4.13-1.48H35.87Z"/></g></g></g></svg>