<svg xmlns="http://www.w3.org/2000/svg" viewBox="0 0 54.73 33.59"><defs><style>.cls-1{fill:#231f20;}</style></defs><title>Asset 9</title><g id="Layer_2" data-name="Layer 2"><g id="desktop"><g id="home"><path class="cls-1" d="M1.69,33.59H20.75S17.11,17,29.17,10.23c2.63-1.28,11-6.06,24.71,4.08.44-.36.85-.65.85-.65S42.18,1.13,28.21,2.53c-7,.63-15.66,7-20.73,15.47A41.69,41.69,0,0,0,1.69,33.59Z"/><path class="cls-1" d="M1.69,33.59H20.75S17.11,17,29.17,10.23c2.63-1.28,11-6.06,24.71,4.08.44-.36.85-.65.85-.65S42.18,1.13,28.21,2.53c-7,.63-15.66,7-20.73,15.47A41.69,41.69,0,0,0,1.69,33.59Z"/><path class="cls-1" d="M1.69,33.59H20.75S17.11,17,29.17,10.23c2.63-1.28,11-6.06,24.71,4.08.44-.36.85-.65.85-.65S42.18,1.13,28.21,2.53c-7,.63-15.69,7-20.75,15.47A41.41,41.41,0,0,0,1.69,33.59ZM41.41,3.88l.09-1.61a11.84,11.84,0,0,0-2.34-.85L39.07,3C39.86,3.28,40.63,3.57,41.41,3.88Z"/><path class="cls-1" d="M39.11,9,39,10.52a13.11,13.11,0,0,1,2.39.29l.09-1.5A18.64,18.64,0,0,0,39.11,9ZM30.19,1.47h.24L29.94,0a20.57,20.57,0,0,0-2.31.14l.46,1.43C28.79,1.5,29.49,1.47,30.19,1.47Zm1.15,8.88L31.9,12a15.4,15.4,0,0,1,2.1-.85l-.53-1.59a18.9,18.9,0,0,0-2.13.77ZM20.39,4,19.3,2.34c-.6.31-1.23.65-1.88,1l1.11,1.69c.63-.39,1.23-.75,1.86-1.06Zm4.95,10.85,1.15,1.74a13.36,13.36,0,0,1,1.43-1.71l-1.09-1.64a13.16,13.16,0,0,0-1.49,1.61Zm-3.5,7.77,1.95,1.55a20.29,20.29,0,0,1,.51-2.83L22.56,20a22.75,22.75,0,0,0-.72,2.65ZM11.27,11.17,9.56,9.68c-.63.6-1.24,1.2-1.79,1.81l1.86,1.59a24.37,24.37,0,0,1,1.64-1.91ZM4,22l-2.77-1c-.46,1-1,2.25-1.21,2.9l2.77,1C3.09,24,3.6,22.85,4,22Zm17.5,6.8a23.3,23.3,0,0,0,.28,3l2.9,1c-.22-.94-.43-2-.58-3.14Z"/></g></g></g></svg>