<svg xmlns="http://www.w3.org/2000/svg" viewBox="0 0 15.79 15.79"><defs><style>.cls-1{fill:#231f20;}</style></defs><title>Asset 2</title><g id="Layer_2" data-name="Layer 2"><g id="desktop"><g id="home"><path class="cls-1" d="M15.07,0H9.33a.72.72,0,1,0,0,1.44h4L6,8.82a.72.72,0,0,0,1,1l7.39-7.39v4a.72.72,0,1,0,1.43,0V.72A.72.72,0,0,0,15.07,0Z"/><path class="cls-1" d="M12.2,7.18a.72.72,0,0,0-.72.72v6.46h-10v-10H7.9a.72.72,0,0,0,0-1.44H.72A.72.72,0,0,0,0,3.59V15.07a.72.72,0,0,0,.72.72H12.2a.72.72,0,0,0,.72-.72V7.9A.72.72,0,0,0,12.2,7.18Z"/></g></g></g></svg>