<svg xmlns="http://www.w3.org/2000/svg" viewBox="0 0 53.67 53.67"><defs><style>.cls-1{fill:#010101;}</style></defs><title>Asset 12</title><g id="Layer_2" data-name="Layer 2"><g id="desktop"><g id="home"><path class="cls-1" d="M26.83,0A26.84,26.84,0,1,0,53.67,26.83,26.87,26.87,0,0,0,26.83,0Zm0,1.23a25.61,25.61,0,1,1-25.6,25.6A25.65,25.65,0,0,1,26.83,1.23Zm0,2.58A22.9,22.9,0,0,0,7.63,14.16c.54,0,1,.06,1.49.06,2.41,0,6.14-.32,6.14-.32a1,1,0,0,1,.13,1.94s-1.27.12-2.65.19l8.4,24.9,5.05-15.07L22.57,16c-1.24-.07-2.4-.19-2.4-.19a1,1,0,0,1,.13-1.94s3.82.32,6.08.32c2.41,0,6.14-.32,6.14-.32a1,1,0,0,1,.13,1.94S31.38,16,30,16l8.34,24.7L40.6,33.1a21.31,21.31,0,0,0,1.75-7.43,12,12,0,0,0-1.87-6.34c-1.17-1.9-2.27-3.53-2.27-5.43a4,4,0,0,1,3.88-4.07h.32A23,23,0,0,0,26.83,3.81ZM47,15.78a17.55,17.55,0,0,1,.19,2.39,21.64,21.64,0,0,1-1.75,8.21l-7,20.3A22.93,22.93,0,0,0,47,15.78ZM5.82,17.46a22.93,22.93,0,0,0,11,30.06Zm21.4,11.38-6.85,20a22.59,22.59,0,0,0,6.46,1,23,23,0,0,0,7.63-1.36,2.09,2.09,0,0,1-.13-.26Z"/></g></g></g></svg>