<svg xmlns="http://www.w3.org/2000/svg" viewBox="0 0 54.71 53.35"><defs><style>.cls-1{fill:#111;}.cls-2,.cls-3{fill:#fff;}.cls-2{stroke:#010101;stroke-miterlimit:10;stroke-width:0.24px;}</style></defs><title>Asset 18</title><g id="Layer_2" data-name="Layer 2"><g id="desktop"><g id="home"><path class="cls-1" d="M2.39,2.39H52.32V51H2.39Z"/><path class="cls-2" d="M.12.12V53.23H54.59V.12ZM2.39,2.39H52.32V51H2.39Z"/><path class="cls-3" d="M39.68,22.43a3.1,3.1,0,0,0-1.32-.23c-2.86,0-4.76,2.2-4.76,5.86,0,4.17,1.95,5.85,4.49,5.85a4.39,4.39,0,0,0,1.57-.25V22.43ZM29.51,28.24c0-5.29,3.4-9.42,9-9.42a9.24,9.24,0,0,1,1.18.05V13a.22.22,0,0,1,.22-.22h3.66c.18,0,.23.07.23.18V33.66a16.7,16.7,0,0,0,.11,2.23c0,.16,0,.18-.14.25A13.45,13.45,0,0,1,38,37.45c-4.92,0-8.44-3-8.44-9.21Zm-7.74-3.68,6.36,12.33c.11.18,0,.36-.14.36H24a.45.45,0,0,1-.48-.3c-1.45-3-2.92-6.1-4.44-9.32h-.05c-1.36,3-2.86,6.35-4.31,9.35a.45.45,0,0,1-.41.25H10.58c-.23,0-.25-.18-.13-.32l6.21-12-6-11.89a.2.2,0,0,1,.16-.34h3.9c.23,0,.34,0,.41.24,1.43,3,2.88,6,4.25,9h0c1.32-3,2.77-6,4.15-9,.12-.18.19-.29.41-.29h3.66c.18,0,.25.13.13.34l-6,11.5Z"/></g></g></g></svg>