<svg xmlns="http://www.w3.org/2000/svg" xmlns:xlink="http://www.w3.org/1999/xlink" viewBox="0 0 46.89 52.75"><defs><style>.cls-1{fill:#010101;}.cls-2{fill:#fff;}.cls-3{fill:url(#linear-gradient);}.cls-4{fill:url(#linear-gradient-2);}.cls-5{fill:url(#linear-gradient-3);}.cls-6,.cls-9{opacity:0.05;}.cls-7,.cls-9{fill:#202020;}.cls-8{fill:url(#linear-gradient-4);}.cls-9{isolation:isolate;}</style><linearGradient id="linear-gradient" x1="16.61" y1="10429.97" x2="16.61" y2="10441.27" gradientTransform="matrix(1, 0, 0, -1, 0, 10457.04)" gradientUnits="userSpaceOnUse"><stop offset="0.39" stop-color="#d3d3d3" stop-opacity="0"/><stop offset="1" stop-color="#d3d3d3"/></linearGradient><linearGradient id="linear-gradient-2" x1="30.73" y1="10435.61" x2="30.73" y2="10447.35" xlink:href="#linear-gradient"/><linearGradient id="linear-gradient-3" x1="9.81" y1="10424.93" x2="36.95" y2="10424.93" gradientTransform="matrix(1, 0, 0, -1, 0, 10457.04)" gradientUnits="userSpaceOnUse"><stop offset="0" stop-color="#e7e7e7"/><stop offset="1" stop-color="#fff"/></linearGradient><linearGradient id="linear-gradient-4" x1="8.57" y1="10444.48" x2="38.03" y2="10444.48" xlink:href="#linear-gradient-3"/></defs><title>Asset 2</title><g id="Layer_2" data-name="Layer 2"><g id="desktop"><g id="home"><polygon class="cls-1" points="42.49 47.62 23.44 52.75 4.39 47.62 0 0 46.89 0 42.49 47.62"/><polygon class="cls-2" points="23.43 15.76 9.79 21.44 10.24 27.06 23.43 21.43 37.45 15.43 38.03 9.68 23.43 15.76"/><polygon class="cls-3" points="9.79 21.44 10.24 27.06 23.43 21.43 23.43 15.76 9.79 21.44"/><polygon class="cls-4" points="38.03 9.68 23.43 15.76 23.43 21.43 37.45 15.43 38.03 9.68"/><polygon class="cls-5" points="9.81 21.44 10.27 27.06 30.49 27.13 30.04 34.62 23.39 36.5 16.99 34.88 16.6 30.23 10.65 30.23 11.43 39.21 23.45 42.77 35.4 39.27 36.95 21.44 9.81 21.44"/><g class="cls-6"><polygon class="cls-7" points="23.43 21.44 9.79 21.44 10.24 27.06 23.43 27.11 23.43 21.44"/><polygon class="cls-7" points="23.43 36.48 23.36 36.5 16.97 34.88 16.58 30.23 10.63 30.23 11.41 39.21 23.43 42.77 23.43 36.48"/></g><polygon class="cls-8" points="8.56 9.68 38.03 9.68 37.45 15.43 9.28 15.43 8.56 9.68"/><polygon class="cls-9" points="23.43 9.68 8.56 9.68 9.28 15.43 23.43 15.43 23.43 9.68"/></g></g></g></svg>