<svg xmlns="http://www.w3.org/2000/svg" xmlns:xlink="http://www.w3.org/1999/xlink" viewBox="0 0 52.79 52.79"><defs><style>.cls-1{fill:none;}.cls-2{clip-path:url(#clip-path);}</style><clipPath id="clip-path" transform="translate(0 0)"><rect class="cls-1" width="52.79" height="52.79"/></clipPath></defs><title>Asset 14</title><g id="Layer_2" data-name="Layer 2"><g id="desktop"><g id="home"><g class="cls-2"><path d="M51.8,24.05l-23-23a3.4,3.4,0,0,0-4.81,0L19.15,5.78l6.07,6.07A4,4,0,0,1,30.34,17l5.85,5.85a4,4,0,1,1-2.42,2.28l-5.46-5.45V34a4.11,4.11,0,0,1,1.07.76,4,4,0,1,1-4.4-.88V19.43a4,4,0,0,1-1.32-.89,4,4,0,0,1-.87-4.42l-6-6L1,23.94a3.4,3.4,0,0,0,0,4.81l23.05,23a3.4,3.4,0,0,0,4.81,0L51.8,28.85a3.39,3.39,0,0,0,0-4.8Z" transform="translate(0 0)"/></g></g></g></g></svg>