<svg xmlns="http://www.w3.org/2000/svg" viewBox="0 0 52.71 50.77"><defs><style>.cls-1{fill:#010101;}</style></defs><title>Asset 5</title><g id="Layer_2" data-name="Layer 2"><g id="desktop"><g id="home"><g id="Layer_5" data-name="Layer 5"><path class="cls-1" d="M3.35,11.92c-4.67,6.71-4.09,15.44-.52,22.56.08.18.17.34.26.51l.16.32.11.19.18.33.34.58c.07.11.13.22.2.32l.39.62c.06.09.11.18.17.26l.57.83,0,0a1.47,1.47,0,0,1,.1.13l.52.69.19.25c.16.2.32.4.49.59l.18.22c.22.26.44.52.67.77h0l0,0,.68.72.22.22.54.54.23.21.74.68h0l.13.11.67.57.28.22.57.44.3.23.64.46a1.88,1.88,0,0,0,.23.16l.06.05.61.41.27.17c.32.2.64.4,1,.59l.26.15c.24.14.48.28.73.41l.4.21.51.26.12.06.22.11.82.38.17.07c.32.14.63.28,1,.4l.23.09.9.34.12,0,1,.33.25.07a8.86,8.86,0,0,0,1,.29c22.57,4.12,29.12-13.56,29.12-13.56-5.51,7.17-15.28,9.07-24.54,7-.35-.08-.69-.19-1-.29l-.26-.08-1-.32-.14,0c-.3-.11-.59-.21-.88-.33l-.24-.09-1-.4-.19-.08-.8-.37-.23-.11-.62-.32-.41-.21-.74-.42-.25-.14c-.33-.19-.65-.39-1-.59l-.26-.17c-.23-.15-.46-.3-.68-.46L17,39l-.65-.46-.29-.22-.59-.46-.26-.21L14.51,37a.27.27,0,0,0-.08-.07l-.76-.7-.22-.2-.55-.54a2.28,2.28,0,0,0-.22-.22c-.23-.24-.45-.47-.67-.72l0,0-.68-.78-.18-.22c-.17-.2-.33-.4-.49-.61s-.13-.14-.19-.22l-.57-.76c-5.14-7-7-16.68-2.87-24.62"/><path class="cls-1" d="M17.83,6.27c-3.37,4.86-3.19,11.36-.56,16.5a21.08,21.08,0,0,0,1.5,2.49,11.7,11.7,0,0,0,1.73,2.17c.25.27.5.53.76.78.07.07.13.14.2.2.25.25.51.49.77.72l0,0h0c.3.26.6.51.91.75l.2.16c.31.24.62.47.95.69l0,0,.43.29.21.13.7.43.1.06c.2.12.41.23.62.34a1.55,1.55,0,0,0,.22.12l.43.22.07,0q.44.23.9.42l.2.09.74.3.32.11c.22.09.45.16.68.24l.31.1a6.47,6.47,0,0,0,1,.28c17.42,2.89,21.45-10.53,21.45-10.53-3.63,5.23-10.65,7.72-18.15,5.77-.33-.08-.66-.18-1-.28l-.3-.1q-.35-.11-.69-.24l-.31-.11-.74-.3-.21-.09c-.3-.13-.61-.27-.9-.42L30,27.41l-.26-.13L29.13,27,29,26.87l-.7-.42-.21-.14-.45-.3-.94-.69-.21-.17A21.05,21.05,0,0,1,19.36,15,15.71,15.71,0,0,1,20.59,2.38"/><path class="cls-1" d="M30,2.05a10.19,10.19,0,0,0-.8,9.8,13.83,13.83,0,0,0,7.92,7.4l.43.15.19.06a4.83,4.83,0,0,0,.62.18C48,21.5,50.6,14.7,51.3,13.7,49,17,45.17,17.78,40.46,16.64a11.52,11.52,0,0,1-1.14-.35c-.46-.17-.92-.35-1.36-.56a14.74,14.74,0,0,1-2.37-1.45C31.37,11.08,28.75,5,31.5,0"/></g></g></g></g></svg>