<svg xmlns="http://www.w3.org/2000/svg" viewBox="0 0 54.18 53.19"><defs><style>.cls-1{fill:#231f20;}</style></defs><title>Asset 11</title><g id="Layer_2" data-name="Layer 2"><g id="desktop"><g id="home"><path class="cls-1" d="M49.91,41.14a17,17,0,0,0-7.15,1c-.55.22-1.44.22-1.51.92.29.3.33.78.59,1.18a8.44,8.44,0,0,0,1.92,2.25c.77.59,1.54,1.18,2.35,1.69,1.44.89,3.06,1.4,4.46,2.29.81.51,1.62,1.18,2.44,1.73.4.29.66.77,1.17,1v-.11c-.25-.33-.33-.81-.59-1.18s-.73-.7-1.1-1.07a17.54,17.54,0,0,0-3.83-3.72c-1.18-.81-3.76-1.92-4.24-3.28l-.08-.08a13.88,13.88,0,0,0,2.55-.59c1.25-.33,2.39-.25,3.68-.58.59-.15,1.18-.34,1.77-.52v-.33c-.66-.67-1.14-1.55-1.84-2.18A49.47,49.47,0,0,0,44.42,35c-1.14-.74-2.62-1.22-3.83-1.84-.45-.22-1.18-.33-1.44-.7a15.08,15.08,0,0,1-1.51-2.84c-1.07-2-2.1-4.27-3-6.41A40,40,0,0,0,32.74,19C28.94,12.76,24.81,9,18.47,5.24a18,18,0,0,0-4.71-1.51c-.92,0-1.85-.11-2.77-.14A14.48,14.48,0,0,1,9.3,2.3C7.2,1,1.78-1.91.23,1.89c-1,2.4,1.48,4.75,2.32,6a17.46,17.46,0,0,1,1.88,2.76c.26.63.34,1.29.59,2a45.94,45.94,0,0,0,1.92,4.94A19.32,19.32,0,0,0,8.3,19.8c.3.41.81.59.92,1.25a10.67,10.67,0,0,0-.84,2.77C7.05,28,7.57,33.14,9.45,36.2c.59.92,2,2.95,3.87,2.17,1.65-.66,1.29-2.76,1.76-4.6.11-.45,0-.74.26-1v.07c.52,1,1,2,1.51,3.06a21.61,21.61,0,0,0,4.79,4.94c.89.66,1.59,1.8,2.69,2.21v-.11h-.07a3.77,3.77,0,0,0-.85-.74A17.18,17.18,0,0,1,21.5,40a47,47,0,0,1-4.13-6.71c-.59-1.14-1.11-2.39-1.59-3.54-.22-.44-.22-1.1-.59-1.32a13.81,13.81,0,0,0-1.76,2.5,20.9,20.9,0,0,0-1,5.57c-.14,0-.07,0-.14.07-1.18-.29-1.59-1.51-2-2.54a15.9,15.9,0,0,1-.33-9.84c.26-.77,1.36-3.21.92-3.94-.22-.7-1-1.11-1.36-1.66a14.85,14.85,0,0,1-1.33-2.36c-.89-2.06-1.33-4.35-2.29-6.41A18.84,18.84,0,0,0,4,6.94,19,19,0,0,1,2,4.06c-.18-.4-.44-1.06-.14-1.51a.6.6,0,0,1,.51-.48c.48-.4,1.85.11,2.32.34A18.08,18.08,0,0,1,8.3,4.25C8.82,4.62,9.37,5.32,10,5.5h.77c1.18.26,2.5.08,3.61.41a23.27,23.27,0,0,1,5.31,2.54,32.8,32.8,0,0,1,11.5,12.6c.44.85.62,1.62,1,2.51C33,25.37,34,27.21,34.76,29a24.12,24.12,0,0,0,2.62,4.93c.55.78,2.76,1.18,3.76,1.59a26.39,26.39,0,0,1,2.54,1c1.25.77,2.51,1.66,3.69,2.51.59.44,2.43,1.36,2.54,2.1Z"/></g></g></g></svg>