<svg xmlns="http://www.w3.org/2000/svg" viewBox="0 0 48.14 53.05"><defs><style>.cls-1{fill:#231f20;}</style></defs><title>Asset 7</title><g id="Layer_2" data-name="Layer 2"><g id="desktop"><g id="home"><path class="cls-1" d="M21.9.57a4.42,4.42,0,0,1,4.34,0l19.84,11.2a4.1,4.1,0,0,1,2.06,3.52V37.77a4.11,4.11,0,0,1-2.22,3.59L26.16,52.51a4.32,4.32,0,0,1-4.39-.12L15.84,49a3.5,3.5,0,0,1-1.15-.82c.25-.34.71-.39,1.07-.53a14.27,14.27,0,0,0,2.34-1.1.54.54,0,0,1,.61,0c1.69,1,3.36,2,5.06,2.93.36.2.73-.07,1-.25q9.69-5.48,19.4-10.95a.64.64,0,0,0,.36-.63V15.4a.7.7,0,0,0-.41-.69L24.46,3.61a.69.69,0,0,0-.78,0L4,14.71a.7.7,0,0,0-.42.69V37.65a.63.63,0,0,0,.36.62l5.26,3a4.1,4.1,0,0,0,3.29.44,2.5,2.5,0,0,0,1.61-2.35c0-7.37,0-14.74,0-22.11a.56.56,0,0,1,.6-.57c.85,0,1.69,0,2.53,0a.58.58,0,0,1,.55.68q0,11.11,0,22.25a5.65,5.65,0,0,1-2.64,5.1,8.16,8.16,0,0,1-7.27-.2c-1.92-1-3.76-2.1-5.65-3.13A4.11,4.11,0,0,1,0,37.77V15.29a4.1,4.1,0,0,1,2.13-3.56Z"/><path class="cls-1" d="M27.65,16.14c2.87-.19,6-.11,8.53,1.3A6.44,6.44,0,0,1,39.33,23a.6.6,0,0,1-.65.44c-.84,0-1.67,0-2.51,0a.64.64,0,0,1-.6-.63,3.81,3.81,0,0,0-1.82-2.63,10.75,10.75,0,0,0-5-.71,6.76,6.76,0,0,0-3.58.89,2.26,2.26,0,0,0-.75,2.53c.27.64,1,.84,1.6,1,3.47.91,7.14.82,10.53,2a4.94,4.94,0,0,1,3.27,2.9,6.21,6.21,0,0,1-1,5.92,8.36,8.36,0,0,1-4.45,2.4,21.36,21.36,0,0,1-6.72.28,10.57,10.57,0,0,1-5.91-2.22,6.18,6.18,0,0,1-2-4.89.56.56,0,0,1,.61-.5c.84,0,1.68,0,2.52,0a.59.59,0,0,1,.6.59,3.86,3.86,0,0,0,1.42,2.68c1.71,1.1,3.85,1,5.8,1.05,1.62-.07,3.44-.09,4.76-1.16a2.64,2.64,0,0,0,.72-2.51,2.26,2.26,0,0,0-1.65-1.31C31.05,28.1,27.34,28.5,24,27.27a5.11,5.11,0,0,1-3.23-2.81,5.78,5.78,0,0,1,1.15-6,9.29,9.29,0,0,1,5.78-2.32Z"/></g></g></g></svg>