<svg xmlns="http://www.w3.org/2000/svg" viewBox="0 0 62.17 55.89"><defs><style>.cls-1{fill:#fff;}.cls-2{fill:#231f20;}</style></defs><title>Asset 6</title><g id="Layer_2" data-name="Layer 2"><g id="desktop"><g id="home"><path class="cls-1" d="M0,27.85c0,4.69,4.58,9.07,11.81,11.55-1.44,7.26-.26,13.12,3.7,15.4s10.13.72,15.88-4.31c5.6,4.83,11.27,6.73,15.22,4.44s5.3-8.61,3.82-16.1c7.53-2.49,11.74-6.23,11.74-11,0-4.59-4.59-8.56-11.72-11C52,9,50.69,3.32,46.57,1S36.86.65,31.18,5.6C25.26.35,19.58-1.26,15.47,1.13s-5.11,8.26-3.66,15.66C4.83,19.22,0,23.28,0,27.85Z"/><path class="cls-2" d="M48.94,19.28c-.59-.21-1.18-.39-1.78-.56.1-.41.19-.81.27-1.22C48.78,11,47.9,5.71,44.89,4s-7.59.07-12.34,4.21q-.7.62-1.38,1.26c-.3-.28-.6-.57-.91-.84-5-4.43-10-6.29-13-4.56s-3.73,6.61-2.52,12.8c.12.62.26,1.23.41,1.83-.71.2-1.39.42-2,.64-5.85,2-9.58,5.24-9.58,8.55s4,6.85,10.1,8.93c.49.17,1,.33,1.49.47-.16.65-.31,1.31-.43,2-1.16,6.08-.26,10.91,2.61,12.57s7.94-.05,12.79-4.28c.38-.34.76-.69,1.15-1.07.48.47,1,.93,1.49,1.37,4.69,4,9.33,5.66,12.19,4s3.93-6.9,2.68-13.21c-.1-.48-.21-1-.33-1.48.35-.1.69-.2,1-.32,6.33-2.09,10.45-5.48,10.45-8.95s-3.85-6.54-9.81-8.59Z"/><path class="cls-1" d="M47.56,34.59l-.92.29a55.75,55.75,0,0,0-2.8-7A55.37,55.37,0,0,0,46.53,21c.56.16,1.11.33,1.64.52,5.11,1.76,8.22,4.36,8.22,6.36s-3.36,4.9-8.83,6.72Zm-2.27,4.49a19.75,19.75,0,0,1,.27,7.29c-.33,1.77-1,3-1.81,3.42-1.74,1-5.46-.3-9.47-3.75-.46-.4-.92-.82-1.39-1.27a55.63,55.63,0,0,0,4.63-5.87A55.39,55.39,0,0,0,45,37.74c.11.46.21.9.29,1.34ZM22.36,49.62c-1.7.6-3.05.62-3.87.14-1.74-1-2.46-4.88-1.48-10.08.12-.61.25-1.22.41-1.83a55.82,55.82,0,0,0,7.44,1.08,55.26,55.26,0,0,0,4.74,5.85c-.35.33-.7.66-1.06,1a20.06,20.06,0,0,1-6.18,3.87Zm-8-15A19.86,19.86,0,0,1,8,31.15C6.59,30,5.9,28.81,5.9,27.87c0-2,3-4.58,8-6.32.62-.22,1.26-.42,1.9-.6a55.56,55.56,0,0,0,2.69,7A57.68,57.68,0,0,0,15.76,35C15.3,34.87,14.85,34.73,14.4,34.57ZM17.07,16.4c-1-5.3-.35-9.3,1.38-10.31s5.94.46,10.24,4.28c.28.25.55.5.83.77A55.89,55.89,0,0,0,24.82,17a57,57,0,0,0-7.37,1.14c-.14-.56-.27-1.13-.38-1.7Zm23.81,5.88c-.54-.93-1.1-1.85-1.67-2.76,1.76.22,3.44.52,5,.88-.48,1.52-1.07,3.12-1.77,4.75-.51-1-1-1.92-1.59-2.87Zm-9.71-9.46c1.09,1.18,2.18,2.5,3.25,3.92-2.17-.1-4.35-.1-6.52,0C29,15.33,30.07,14,31.17,12.82ZM21.4,22.3q-.81,1.41-1.56,2.85c-.69-1.63-1.27-3.23-1.75-4.78,1.57-.35,3.25-.64,5-.85C22.5,20.43,21.94,21.36,21.4,22.3Zm1.74,14.09a48,48,0,0,1-5.09-.82c.49-1.57,1.09-3.21,1.79-4.87.5,1,1,1.92,1.57,2.86S22.54,35.46,23.14,36.39Zm8.1,6.69a50.1,50.1,0,0,1-3.32-4c1,0,2.13.06,3.23.06s2.23,0,3.33-.07Q32.86,41.29,31.24,43.08ZM42.5,30.61a51.64,51.64,0,0,1,1.85,4.86,49.2,49.2,0,0,1-5.15.88c.58-.93,1.15-1.86,1.69-2.81S42,31.6,42.5,30.61Zm-3.65,1.75q-1.26,2.18-2.65,4.28c-1.64.11-3.33.17-5.05.17s-3.39-.05-5-.16q-1.44-2.09-2.7-4.28t-2.36-4.44q1.1-2.28,2.35-4.45h0q1.26-2.19,2.68-4.27c1.64-.12,3.32-.19,5-.19s3.39.07,5,.2c.94,1.38,1.83,2.8,2.66,4.24s1.64,2.93,2.38,4.43c-.73,1.52-1.53,3-2.37,4.47ZM43.72,6c1.85,1.07,2.56,5.37,1.4,11-.07.37-.16.73-.25,1.1A55.33,55.33,0,0,0,37.49,17a56.91,56.91,0,0,0-4.66-5.83c.41-.39.83-.78,1.26-1.16C38.17,6.42,42,5,43.72,6Z"/><path class="cls-2" d="M31.15,22.94a4.93,4.93,0,1,1-4.93,4.93,4.93,4.93,0,0,1,4.93-4.93"/></g></g></g></svg>